<svg xmlns="http://www.w3.org/2000/svg" viewBox="0 0 286 96" fill="none">
  <defs></defs>
  <g transform="translate(-17 11) scale(0.74)">
    <path d="M32 16 H58 L74 32 V78 Q74 84 68 84 H32 Q26 84 26 78 V22 Q26 16 32 16 Z" fill="none" stroke="#ffffff" stroke-width="5" stroke-linejoin="round" stroke-linecap="round"></path>
    <path d="M58 16 V32 H74" fill="none" stroke="#ffffff" stroke-width="5" stroke-linejoin="round" stroke-linecap="round"></path>
    <line x1="34" y1="44" x2="66" y2="44" stroke="#ffffff" stroke-width="5" stroke-linecap="round"></line>
    <line x1="34" y1="54" x2="60" y2="54" stroke="#ffffff" stroke-width="5" stroke-linecap="round"></line>
    <path d="M37 62 H63 Q67 62 67 66 V70 Q67 74 63 74 H46 L40 80 L41 74 H37 Q33 74 33 70 V66 Q33 62 37 62 Z" fill="#ffffff"></path>
  </g>
  <text x="48" y="61" font-family="Merriweather, Georgia, &#39;Times New Roman&#39;, serif" font-style="italic" font-size="46" font-weight="700" letter-spacing="-0.5" fill="#ffffff">Talktofile</text>
</svg>