<svg xmlns="http://www.w3.org/2000/svg" viewBox="0 0 100 100" fill="none">
  <rect x="0" y="0" width="100" height="100" rx="22" fill="#C2410C"></rect>
  <path d="M38 22 H60 L72 34 V74 Q72 78 68 78 H38 Q34 78 34 74 V26 Q34 22 38 22 Z" fill="none" stroke="#fff" stroke-width="5" stroke-linejoin="round" stroke-linecap="round"></path>
  <path d="M60 22 V34 H72" fill="none" stroke="#fff" stroke-width="5" stroke-linejoin="round" stroke-linecap="round"></path>
  <line x1="41" y1="46" x2="65" y2="46" stroke="#fff" stroke-width="5" stroke-linecap="round"></line>
  <path d="M43 56 H64 Q68 56 68 60 V64 Q68 68 64 68 H50 L45 73 L46 68 H43 Q39 68 39 64 V60 Q39 56 43 56 Z" fill="#fff"></path>
</svg>
